# xmcd CD database file
#
# Track frame offsets:
#	150
#	22718
#	36508
#	56670
#	72887
#	96694
#	116237
#	133370
#	148890
#	169616
#	185553
#	204088
#	224285
#	242756
#	257037
#	273868
#	297891
#	313778
#
# Disc length: 4469 seconds
#
# Revision: 2
# Processed by: cddbd v1.5.2PL0 Copyright (c) Steve Scherf et al.
# Submitted via: CDex 1.51
#
DISCID=1e117312
DTITLE=Various Artist - Close to You - D1
DYEAR=2008
DGENRE=Jazz
TTITLE0=Over the Rainbow - Eva Cassidy
TTITLE1=I'll Have To Say I Love You In A Song - Susan Wong
TTITLE2=Colors of the Wind - Lin Fan, Freya
TTITLE3=Yesterday - Jiafei
TTITLE4=Life - Sofia Kallgren
TTITLE5=Someone Like You - Sissel
TTITLE6=Just the Way You Are - Shunza
TTITLE7=I Wanna Make It WIth You - Olivia
TTITLE8=So Far Away - Noon
TTITLE9=So Nice - Ayako Kawahara
TTITLE10=Both Side Now - Ann Sally
TTITLE11=You've Got A Friend - Judy Hall with Jordan Lee
TTITLE12=Time After Time - Alemay Fernandez
TTITLE13=Scarborough Fair - Hayley Westenra
TTITLE14=Rainy Days and Mondays - Emmy Rossum
TTITLE15=The Water Is Wide - Strengemusikken
TTITLE16=Lovin' You - Marcela Mangabeira
TTITLE17=Will You Still Love Me Tomorrow - Inger Marie Gundersen
EXTD=YEAR: 2008
EXTT0=
EXTT1=
EXTT2=
EXTT3=
EXTT4=
EXTT5=
EXTT6=
EXTT7=
EXTT8=
EXTT9=
EXTT10=
EXTT11=
EXTT12=
EXTT13=
EXTT14=
EXTT15=
EXTT16=
EXTT17=
PLAYORDER=
